<svg fill="#F5B700" width="100pt" height="100pt" version="1.1" viewBox="0 0 100 100" xmlns="http://www.w3.org/2000/svg"> <path d="m1.4219 84.406c0 0.023438 0 0.042969 0.015625 0.0625s0 0.03125 0.007812 0.046875c0.007813 0.015625 0.015626 0.046875 0.027344 0.070313v-0.003907c0.003906 0.011719 0.007813 0.023438 0.011719 0.035157 0.011719 0.015624 0.019531 0.035156 0.03125 0.050781 0.003906 0.015625 0.015625 0.03125 0.023437 0.042969l0.023438 0.03125v0.003906c0.011719 0.019531 0.027344 0.035156 0.042969 0.054687l0.015625 0.015625c0.019531 0.023438 0.039062 0.039063 0.0625 0.0625 0.054687 0.046875 0.11328 0.085938 0.17969 0.11719 2.6875 1.2188 5.7539 2.8008 9.3203 4.8203 4.0312 2.2812 8.7188 5.1289 14.227 8.6328l0.089844 0.054687h-0.003906c0.035156 0.023438 0.070312 0.042969 0.10938 0.058594l0.03125 0.007812v0.003907c0.03125 0.011719 0.066406 0.023437 0.10156 0.03125l0.039063 0.007812c0.046875 0.007813 0.09375 0.011719 0.13672 0.015625h0.09375c0.011719-0.003906 0.023438-0.003906 0.03125 0h0.0625l0.039063-0.015625 0.054687-0.015625h0.007813l0.019531-0.007812h0.011719l0.042969-0.023438h0.007812l23.219-13.543 23.336 13.34h0.011718c0.12109 0.066407 0.25391 0.10156 0.39063 0.10156 0.035156 0.003906 0.070312 0.003906 0.10156 0h0.03125l0.070312-0.015625 0.039063-0.015625 0.054687-0.015625 0.042969-0.023438 0.046875-0.023437 23.637-13.551c0.21484-0.12109 0.35938-0.33594 0.39062-0.58594 1.4375-11.523 1.4062-20.266-0.11719-27.516v0.003906c0.007813-0.10547-0.007812-0.21094-0.046874-0.30859-0.09375-0.25781-0.31641-0.44531-0.58594-0.49609-6.375-5.2539-13.926-9.6406-23.047-13.379 0.85156-9.8594 0.80078-18.672-0.16797-26.922h0.003906c-0.003906-0.015626-0.007812-0.03125-0.015624-0.046876 0-0.023437 0-0.046874-0.015626-0.066406l0.003907-0.003906c-0.011719-0.023438-0.023438-0.046875-0.035157-0.070312-0.003906-0.015626-0.007812-0.027344-0.015624-0.042969v-0.015625 0.003906c-0.015626-0.03125-0.03125-0.058594-0.046876-0.082031l-0.03125-0.046875c-0.019531-0.027344-0.042968-0.050782-0.0625-0.070313-0.011718-0.015625-0.027343-0.027343-0.039062-0.039062-7.2695-6.3945-15.125-10.879-24.023-13.73-0.16797-0.054688-0.35156-0.050781-0.51562 0.011719-8.6602 3.2773-16.715 7.9766-23.828 13.898-0.007812 0-0.015624 0.019532-0.027343 0.03125h-0.003907c-0.019531 0.019532-0.042968 0.039063-0.0625 0.0625l-0.015624 0.019532c-0.011719 0.015624-0.023438 0.03125-0.03125 0.050781-0.015626 0.015625-0.027344 0.03125-0.035157 0.046875v0.023437h-0.003906c-0.003906 0.007813-0.007813 0.019531-0.015625 0.027344-0.003906 0.015625-0.011719 0.03125-0.015625 0.046875-0.011719 0.027344-0.019531 0.058594-0.03125 0.085938-0.003906 0.011718-0.007813 0.023437-0.007813 0.03125v0.035156 0.003906c-0.007812 0.03125-0.011718 0.066406-0.015624 0.10156v0.039063l0.11719 26.684c-7.2852 2.1641-15.184 7.7227-23.312 13.723l-0.015625 0.015625-0.015625 0.011719-0.03125 0.027343-0.050781 0.050782-0.03125 0.039062-0.023438 0.035156c0 0.007813-0.011718 0.023438-0.019531 0.03125v0.011719 0.007813l-0.015625 0.023437c-0.011719 0.019531-0.027344 0.039063-0.039062 0.058594l-0.015626 0.039063v0.015624c-0.003906 0.007813-0.003906 0.015626 0 0.023438v0.011719c-0.003906 0.011719-0.003906 0.023437 0 0.035156 0 0.019531 0 0.039063-0.011718 0.0625-0.011719 0.019531 0 0.007813 0 0.015625v0.015625 0.09375l0.11719 27.332v-0.003906c-0.015625 0.039062-0.027343 0.082031-0.035156 0.125zm44.25 1.0234 0.16016-0.375h0.003907c0.10547-0.24609-0.007813-0.53516-0.25391-0.64453-0.25-0.10547-0.53516 0.007813-0.64453 0.25391l-0.68359 1.5898-0.85547 0.5 0.54687-1.4023c0.097657-0.25-0.027343-0.53516-0.28125-0.63281-0.25-0.097656-0.53516 0.03125-0.63281 0.28125l-0.97656 2.5547-1.2539 0.72656 1.3672-2.2344c0.14062-0.23047 0.070312-0.53125-0.16016-0.67188-0.23047-0.14062-0.53125-0.070312-0.67187 0.16016l-1.1133 1.8047 0.19531-0.66406c0.070312-0.25391-0.074219-0.51953-0.32812-0.59766-0.25391-0.074219-0.51953 0.0625-0.60547 0.3125l-0.97656 3.2188-1.6484 0.96094 1.5977-4.2422c0.09375-0.25391-0.035156-0.53516-0.28516-0.62891-0.25391-0.09375-0.53516 0.035156-0.63281 0.28516l-1.9922 5.3516-1.7344 1.0117 3.0391-5.8242c0.10938-0.23828 0.015626-0.51953-0.21875-0.64063-0.23047-0.12109-0.51953-0.039062-0.64844 0.1875l-3.7578 7.2031-1.4844 0.86719 4.1406-7.25c0.12891-0.23438 0.042969-0.52344-0.18359-0.65625-0.23047-0.13281-0.52344-0.054687-0.66016 0.17188l-4.9844 8.7109-1.5312 0.89062 4.7031-8.2344c0.125-0.23438 0.042969-0.52344-0.1875-0.65625-0.23047-0.13281-0.52344-0.054688-0.66016 0.17187l-4.6875 8.2031v-1.7578l4.3633-8.0859c0.12891-0.23438 0.039062-0.53125-0.19531-0.66016-0.23828-0.12891-0.53516-0.039062-0.66406 0.19922l-3.5156 6.5195v-1.7852l4.2891-6.8672h-0.003906c0.14453-0.23047 0.074218-0.53125-0.15234-0.67188-0.23047-0.14453-0.53125-0.074218-0.67578 0.15625l-3.4727 5.5469v-1.9844l2.9609-5.1797c0.125-0.23438 0.042969-0.52344-0.1875-0.65625s-0.52344-0.054687-0.66016 0.17188l-2.125 3.7109-0.007813-2.1562 1.9531-3.7109c0.066406-0.11719 0.082032-0.25391 0.046875-0.38281-0.039062-0.125-0.125-0.23438-0.24219-0.29297-0.11719-0.0625-0.25391-0.074219-0.38281-0.035157-0.125 0.042969-0.22656 0.13281-0.28516 0.25391l-1.1016 2.0938v-1.4375l2.0312-2.4219c0.17188-0.20703 0.14844-0.51562-0.058593-0.6875-0.20703-0.17578-0.51562-0.14844-0.69141 0.058594l-1.2891 1.5391-0.011719-2.3633 0.82812-1.4453c0.12891-0.23047 0.050782-0.52344-0.17578-0.66016-0.22266-0.13281-0.51562-0.066406-0.66016 0.15625v-1.6836c4.8281-4.7969 12.055-9.0781 22.055-13.074l0.10938 25.738zm50.477-1.7695-3.2734 1.8711 0.046875-0.10156h0.003906c0.11328-0.24219 0.011719-0.53516-0.23438-0.64844s-0.53516-0.011719-0.65234 0.23438l-0.64062 1.3672-1.2656 0.72656 0.58594-1.0391c0.125-0.23437 0.039062-0.52734-0.1875-0.65625-0.23047-0.13281-0.52344-0.058593-0.66406 0.17188l-1.4219 2.4805-1.2188 0.69922 0.41016-2.1484h0.003906c0.023437-0.12891 0-0.26563-0.074219-0.37109-0.070312-0.10938-0.18359-0.1875-0.3125-0.21094-0.12891-0.023437-0.26172 0.003906-0.37109 0.078125-0.10937 0.074219-0.17969 0.1875-0.20312 0.31641l-0.54688 2.9648-1.6406 0.9375 1.3906-3.1836h-0.003906c0.097656-0.24609-0.015625-0.52734-0.25781-0.63281-0.24219-0.10547-0.52344 0-0.63672 0.24219l-1.9141 4.3906-1.8203 1.0391 2.5234-5.0078c0.12109-0.23828 0.023437-0.53125-0.21875-0.65625-0.24219-0.12109-0.53516-0.023438-0.65625 0.21875l-3.1836 6.3242-1.4531 0.82812 3.9648-6.9336c0.125-0.23438 0.042969-0.52734-0.1875-0.65625-0.23047-0.13281-0.52344-0.058594-0.66016 0.17187l-4.7852 8.3672-1.2969 0.74219 4.6875-7.3438v-0.003907c0.13281-0.22656 0.0625-0.51562-0.15625-0.65625-0.22266-0.14453-0.51562-0.085937-0.66406 0.12891l-5.125 8.0312v-1.8906l4.7539-8.3164-0.003907-0.003906c0.13672-0.23438 0.054688-0.53125-0.17969-0.66406-0.23438-0.13281-0.53516-0.054688-0.66797 0.17969l-3.918 6.8477v-1.8438l4.2852-6.1875c0.15234-0.22266 0.097656-0.52734-0.12109-0.67969-0.22266-0.15234-0.52734-0.097656-0.67969 0.12109l-3.4922 5.0391-0.007813-2.1133 3.9766-6.3281v0.003906c0.13281-0.23047 0.058594-0.51953-0.16406-0.66016-0.22266-0.14062-0.51562-0.078125-0.66406 0.13672l-3.1602 5.0234-0.007813-2.3906 2.2656-4.6016h-0.003906c0.12109-0.24219 0.019531-0.53516-0.22266-0.65625-0.23828-0.11719-0.53125-0.015624-0.65234 0.22656l-1.3984 2.8438v-1.4922l1.9531-3.4062c0.13672-0.23438 0.054687-0.53125-0.17969-0.66797-0.23438-0.13281-0.53125-0.050781-0.66797 0.18359l-1.1094 1.9375v-1.7109l0.82812-1.4453h0.003907c0.12109-0.23047 0.042968-0.51562-0.17969-0.64844s-0.51172-0.070313-0.65625 0.14453v-1.7734c7.0312-5.8594 14.32-10.18 22.219-13.195 1.2891 6.8555 1.2852 15.125-0.039062 25.906zm-1.0312-27.184c-7.8281 3.0469-15.055 7.3672-22.039 13.156l-22.047-12.852 22.07-12.867c8.6602 3.5469 15.883 7.6641 22.016 12.562zm-22.832-13.898-4.0156 2.3438 0.46875-1.0625c0.0625-0.12109 0.074219-0.26172 0.027344-0.38672-0.042969-0.12891-0.14062-0.23047-0.26562-0.28516-0.12109-0.054688-0.26562-0.054688-0.38672-0.003906-0.125 0.054687-0.22266 0.15625-0.26562 0.28516l-1.0156 2.2969-0.88281 0.51562 0.4375-0.91406c0.11328-0.24609 0.011719-0.53516-0.23047-0.65234-0.24609-0.11719-0.53516-0.015625-0.65234 0.23047l-1.0508 2.1953-1.5859 0.92578 1.4531-3.0234v-0.003907c0.11719-0.24219 0.015626-0.53125-0.23047-0.64844-0.24219-0.11719-0.53516-0.015625-0.65234 0.22656l-2.0742 4.3242-0.86328 0.50391 1.2344-2.8594c0.10938-0.24609-0.003906-0.53516-0.25-0.64453-0.25-0.10547-0.53516 0.007813-0.64453 0.25391l-1.7578 4.0781-1.9023 1.1094 2.1133-4.4453c0.11719-0.24609 0.011719-0.53906-0.23047-0.65234-0.24609-0.11719-0.53516-0.011718-0.65234 0.23047l-2.7266 5.7383-1.207 0.70312 2.7969-5.9375c0.10156-0.24219-0.003907-0.52344-0.24219-0.63281-0.23438-0.11328-0.51953-0.015625-0.64062 0.21875l-3.3984 7.2266-1.9688 1.1484 5.1797-9.082c0.12891-0.23438 0.042969-0.52344-0.18359-0.65625-0.23047-0.13281-0.52344-0.054688-0.66016 0.17187l-5.1641 9.043-0.015624-3.2422 4.7578-6.0273v-0.003906c0.082031-0.097656 0.12109-0.23047 0.10547-0.35938-0.011719-0.13281-0.078125-0.25-0.18359-0.33203-0.10156-0.078126-0.23438-0.11719-0.36328-0.097657-0.12891 0.015625-0.24609 0.082031-0.32422 0.1875l-3.9961 5.0625v-0.81641l3.5156-6.1797c0.13281-0.23828 0.050782-0.53516-0.18359-0.66797-0.23828-0.13281-0.53516-0.050781-0.66797 0.18359l-2.6719 4.7031v-1.7266l2.8594-4.4609c0.14453-0.22656 0.078125-0.52734-0.14844-0.67578-0.22656-0.14453-0.52734-0.078125-0.67578 0.14844l-2.0664 3.1875v-2.375l2.2422-4.1875 0.003906 0.003906c0.12891-0.23828 0.039063-0.53516-0.19922-0.66406-0.23828-0.125-0.53516-0.035157-0.66016 0.20312l-1.3906 2.5938v-1.5625l1.7891-2.5625c0.15234-0.22266 0.097656-0.52734-0.125-0.68359-0.21875-0.15234-0.52734-0.097657-0.67969 0.12109l-0.99219 1.4258v-1.6875l1.4062-1.125c0.21094-0.16797 0.24609-0.47266 0.078125-0.68359s-0.47656-0.24609-0.6875-0.078125l-0.80469 0.64062-0.011719-2.7109c6.3906-4.7422 13.66-9.0391 22.172-13.109 0.81641 7.8711 0.83203 16.289 0.007812 25.68zm-23.082-39.602c8.2188 2.668 15.516 6.7891 22.281 12.547-8.4844 4.0625-15.75 8.3516-22.152 13.086-7.125-6.1641-14.395-10.43-22.156-13 6.6406-5.332 14.07-9.5938 22.023-12.633zm-23.691 41.07 22.043 12.594c-9.7656 3.9453-16.918 8.2031-21.809 12.953-7.1289-5.6797-14.535-10.008-22.035-12.867 7.6562-5.625 15.078-10.719 21.801-12.68z"/> <path d="m76.875 49.609c4.2305 1.3477 8.1562 3.5078 11.562 6.3555-4.4922 2.1797-8.3281 4.4805-11.727 7.0312-0.34766 0.25781-0.41797 0.74609-0.15625 1.0938 0.25781 0.34766 0.74609 0.41797 1.0938 0.16016 3.418-2.5547 7.2969-4.8672 11.863-7.0586h-0.003907c0.39453-0.1875 0.66406-0.5625 0.71875-0.99219 0.054688-0.42969-0.11328-0.85938-0.44531-1.1367-3.6367-3.1172-7.8633-5.4766-12.43-6.9336-0.39062-0.089844-0.78906 0.13672-0.91406 0.52344-0.12109 0.38281 0.066406 0.79688 0.4375 0.95703z"/> <path d="m22.375 61.539c-4.3359-0.96484-8.4414-2.7617-12.086-5.2891 4.2734-2.5703 7.8906-5.207 11.055-8.0469h-0.003906c0.32422-0.28906 0.35156-0.78516 0.066406-1.1094-0.28906-0.32031-0.78516-0.35156-1.1094-0.0625-3.1758 2.8516-6.8359 5.5-11.184 8.0938-0.375 0.21875-0.60938 0.61719-0.625 1.0508-0.019531 0.43359 0.1875 0.84766 0.54297 1.0977 3.9023 2.7773 8.3242 4.7461 13 5.7891 0.054688 0.011719 0.11328 0.019531 0.17188 0.019531 0.40234 0.003907 0.73828-0.29688 0.78125-0.69531 0.042969-0.39844-0.21875-0.76562-0.60938-0.84766z"/> <path d="m53.457 8.5938c4.2305 1.3516 8.1562 3.5078 11.562 6.3555-4.4922 2.1797-8.3281 4.4805-11.719 7.0312-0.17578 0.12109-0.29297 0.30859-0.32812 0.51562-0.035156 0.21094 0.019532 0.42578 0.14453 0.59375 0.12891 0.17188 0.32031 0.28125 0.53125 0.30859 0.21094 0.027343 0.42187-0.035157 0.58594-0.16797 3.4102-2.5547 7.2891-4.8711 11.855-7.0547 0.39062-0.1875 0.66016-0.5625 0.71484-0.99219 0.058593-0.42969-0.10938-0.85938-0.4375-1.1367v-0.003906c-3.6406-3.1172-7.8672-5.4727-12.434-6.9297-0.20312-0.085937-0.43359-0.085937-0.63281 0.003907-0.19922 0.09375-0.35156 0.26562-0.42188 0.47266-0.066406 0.21094-0.042968 0.4375 0.066406 0.62891 0.10938 0.19141 0.29688 0.32812 0.51172 0.375z"/> </svg>